<svg xmlns="http://www.w3.org/2000/svg" viewBox="0 0 512 512">
  <defs>
    <linearGradient id="bg" x1="0" y1="0" x2="1" y2="1">
      <stop offset="0" stop-color="#FF8FC7"/>
      <stop offset="1" stop-color="#9B5DE5"/>
    </linearGradient>
  </defs>
  <rect width="512" height="512" rx="120" fill="url(#bg)"/>
  <!-- cute P character -->
  <g>
    <!-- body of P -->
    <path d="M176 130 h95 a86 86 0 0 1 0 172 h-43 v80 a30 30 0 0 1-60 0 V160 a30 30 0 0 1 30-30 z
             M228 188 v56 h43 a28 28 0 0 0 0-56 z"
          fill="#ffffff"/>
    <!-- eyes on the bowl of the P -->
    <circle cx="244" cy="206" r="9" fill="#9B5DE5"/>
    <circle cx="285" cy="206" r="9" fill="#9B5DE5"/>
    <!-- little smile -->
    <path d="M246 228 q19 16 38 0" stroke="#9B5DE5" stroke-width="7" fill="none" stroke-linecap="round"/>
    <!-- cheeks -->
    <circle cx="232" cy="222" r="7" fill="#FF8FB0" opacity="0.7"/>
    <circle cx="298" cy="222" r="7" fill="#FF8FB0" opacity="0.7"/>
  </g>
  <!-- sparkles -->
  <g fill="#FFD23F">
    <path d="M380 150 l10 22 22 10 -22 10 -10 22 -10-22 -22-10 22-10 z"/>
    <circle cx="150" cy="370" r="12"/>
    <circle cx="360" cy="360" r="9" fill="#4ECB5B"/>
  </g>
</svg>
